<svg xmlns="http://www.w3.org/2000/svg" width="30" height="32" fill="none" viewBox="0 0 32 30" class="Logo_image__xOQTR"><path fill="#20FFB6" d="M0 14.394C0 8.348 3.354 3.084 8.303.364 8.855.06 9.536.185 9.983.63l4.956 4.957a1.5 1.5 0 0 0 2.122 0L22.017.631c.447-.446 1.128-.571 1.68-.267C28.648 3.084 32 8.348 32 14.394c0 7.18-4.73 13.255-11.243 15.28-.898.28-1.757-.432-1.757-1.372V17.894a1.5 1.5 0 0 1 1.5-1.5h2a1.5 1.5 0 0 0 1.5-1.5v-3a1.5 1.5 0 0 0-1.5-1.5h-13a1.5 1.5 0 0 0-1.5 1.5v3a1.5 1.5 0 0 0 1.5 1.5h2a1.5 1.5 0 0 1 1.5 1.5v10.408c0 .94-.859 1.652-1.757 1.373C4.729 27.649 0 21.574 0 14.394"></path></svg>